<svg xmlns="http://www.w3.org/2000/svg" xml:space="preserve" enable-background="new 0 0 800 800" viewBox="0 0 800 800"><switch><g><radialGradient id="a" cx="400" cy="400" r="264" gradientUnits="userSpaceOnUse"><stop offset="0" style="stop-color:#009245"/><stop offset=".5" style="stop-color:#0f0"/><stop offset="1" style="stop-color:#7ac943"/></radialGradient><circle cx="400" cy="400" r="264" fill="url(#a)"/><radialGradient id="b" cx="400" cy="400" r="264" gradientUnits="userSpaceOnUse"><stop offset="0" style="stop-color:#fff"/><stop offset=".235" style="stop-color:#e7f3d6"/><stop offset=".76" style="stop-color:#a9d470"/><stop offset="1" style="stop-color:#8cc63f"/></radialGradient><circle cx="400" cy="400" r="264" fill="url(#b)" stroke="#000" stroke-miterlimit="10" opacity=".1"/><path fill="none" stroke="#FFF" stroke-miterlimit="10" stroke-width="5" d="M400 558.25c-87.26 0-158.25-70.991-158.25-158.25 0-87.26 70.991-158.25 158.25-158.25 87.261 0 158.25 70.991 158.25 158.25 0 87.26-70.99 158.25-158.25 158.25z"/><circle cx="400" cy="400" r="138.25" fill="#FFF"/><path d="M365.83 359.97c-.589.769-.883 1.327-.883 1.674 0 .35.546.524 1.639.524 4.287-.279 6.891-.42 7.817-.42 15.523 0 28.166 4.904 37.929 14.709 9.764 9.807 14.645 21.259 14.645 34.355 0 11.418-4.917 22.625-14.75 33.62-9.834 10.997-21.329 19.069-34.482 24.218-13.155 5.147-26.287 7.722-39.399 7.722-5.884 0-12.607-.945-20.172-2.837-7.564-1.891-14.31-5.024-20.235-9.403-5.925-4.376-8.888-8.177-8.888-11.399 0-1.221.52-2.226 1.56-3.017 1.04-.79 2.144-1.186 3.31-1.186 1.996 0 4.618 1.552 7.864 4.65 5.729 5.356 11.543 8.811 17.443 10.36a70.825 70.825 0 0 0 18.076 2.325c9.605 0 19.38-2.366 29.325-7.101 9.944-4.732 17.802-11.481 23.574-20.247 5.772-8.765 8.66-19.038 8.66-30.818 0-3.717-1.391-8.52-4.17-14.41s-6.759-10.675-11.938-14.357c-5.181-3.681-11.266-5.522-18.258-5.522-5.137 0-9.96.911-14.465 2.731-4.507 1.822-7.265 2.732-8.276 2.732-2.021 0-3.032-.906-3.032-2.719 0-1.602.924-3.483 2.774-5.646l22.946-27.912c.924-1.113 1.387-2.333 1.387-3.658 0-1.394-.8-2.091-2.396-2.091h-36.436c-2.269 0-4.519 1.174-6.745 3.52-2.228 2.348-4.182 3.52-5.862 3.52-3.11 0-4.665-2.731-4.665-8.195 0-2.312.252-4.465.757-6.461.504-1.996.756-3.449.756-4.36 0-4.132 2.773-6.199 8.321-6.199h74.637c6.639 0 9.96 1.162 9.96 3.487 0 1.057-.376 2.009-1.127 2.854-.753.846-3.319 2.061-7.701 3.645-4.383 1.586-7.576 3.681-9.58 6.287l-19.92 25.06zM483.72 453.76c0 2.246.65 4.156 1.954 5.734 1.302 1.579 4.181 2.719 8.636 3.419 4.454.703 7.165 1.504 8.133 2.403.965.9 1.449 1.974 1.449 3.22 0 1.177-.713 2.216-2.139 3.115-1.427.898-3.398 1.35-5.914 1.35-1.427 0-4.594-.263-9.502-.788-4.906-.525-9.625-.787-14.153-.787-7.299 0-12.814.262-16.546.787s-5.977.788-6.73.788c-5.453 0-8.18-2.045-8.18-6.133 0-1.039.42-1.906 1.261-2.599.839-.692 3.468-1.266 7.88-1.722 4.412-.457 7.354-1.596 8.825-3.422 1.47-1.823 2.206-4.035 2.206-6.632l.252-98.937c0-2.385-.693-4.209-2.08-5.473-1.387-1.263-2.669-1.895-3.846-1.895-1.764 0-4.308.998-7.627 2.994-3.321 1.997-5.779 2.995-7.375 2.995-3.952 0-5.926-1.706-5.926-5.12 0-1.279 1.336-2.829 4.011-4.651 2.673-1.82 7.563-4.728 14.666-8.72l14.792-8.615c6.77-3.851 11.191-6.268 13.271-7.25 2.08-.98 3.968-1.471 5.666-1.471 2.801 0 4.201 1.193 4.201 3.577 0 1.684-.882 3.647-2.646 5.892-3.195 4.07-4.791 8.665-4.791 13.783l.756 84.697-.5 29.47z"/><g fill="#1F1C00"><path d="M363.28 358.83c-.589.769-.883 1.327-.883 1.674 0 .35.546.524 1.639.524 4.287-.279 6.891-.42 7.817-.42 15.523 0 28.166 4.904 37.929 14.709 9.763 9.807 14.645 21.259 14.645 34.355 0 11.418-4.918 22.625-14.751 33.62-9.834 10.997-21.329 19.069-34.482 24.218-13.155 5.147-26.287 7.722-39.399 7.722-5.884 0-12.607-.945-20.172-2.837-7.564-1.891-14.31-5.024-20.235-9.403-5.925-4.376-8.888-8.177-8.888-11.399 0-1.221.52-2.226 1.56-3.017 1.04-.79 2.144-1.186 3.31-1.186 1.996 0 4.618 1.552 7.864 4.65 5.729 5.356 11.543 8.811 17.443 10.36a70.825 70.825 0 0 0 18.076 2.325c9.605 0 19.38-2.366 29.325-7.101 9.944-4.732 17.802-11.481 23.574-20.247 5.772-8.765 8.66-19.038 8.66-30.818 0-3.717-1.391-8.52-4.17-14.41s-6.759-10.675-11.938-14.357c-5.181-3.681-11.266-5.522-18.258-5.522-5.137 0-9.96.911-14.465 2.731-4.507 1.822-7.265 2.732-8.276 2.732-2.021 0-3.032-.906-3.032-2.719 0-1.602.924-3.483 2.774-5.646l22.946-27.912c.924-1.113 1.387-2.333 1.387-3.658 0-1.394-.8-2.091-2.396-2.091h-36.436c-2.269 0-4.519 1.174-6.745 3.52-2.228 2.348-4.182 3.52-5.862 3.52-3.11 0-4.665-2.731-4.665-8.195 0-2.312.252-4.465.757-6.461.504-1.996.756-3.449.756-4.36 0-4.132 2.773-6.199 8.321-6.199h74.637c6.639 0 9.959 1.162 9.959 3.487 0 1.057-.376 2.009-1.126 2.854-.752.846-3.319 2.061-7.701 3.645-4.383 1.586-7.576 3.681-9.58 6.287l-19.93 25.06zM481.16 452.63c0 2.246.65 4.156 1.954 5.734 1.303 1.579 4.181 2.719 8.637 3.419 4.453.703 7.164 1.504 8.132 2.403.965.9 1.45 1.974 1.45 3.22 0 1.177-.714 2.216-2.14 3.115-1.427.898-3.398 1.35-5.914 1.35-1.427 0-4.594-.263-9.501-.788s-9.625-.787-14.154-.787c-7.299 0-12.814.262-16.545.787-3.733.525-5.977.788-6.731.788-5.452 0-8.179-2.045-8.179-6.133 0-1.039.419-1.906 1.26-2.599.84-.692 3.468-1.266 7.881-1.722 4.412-.457 7.354-1.596 8.824-3.422 1.471-1.823 2.207-4.035 2.207-6.632l.252-98.937c0-2.385-.693-4.209-2.08-5.473-1.387-1.263-2.67-1.895-3.846-1.895-1.765 0-4.309.998-7.627 2.994-3.322 1.997-5.78 2.995-7.376 2.995-3.952 0-5.925-1.706-5.925-5.12 0-1.279 1.335-2.829 4.01-4.651 2.674-1.82 7.563-4.728 14.666-8.72l14.793-8.615c6.769-3.851 11.191-6.268 13.271-7.25 2.08-.98 3.967-1.471 5.666-1.471 2.801 0 4.201 1.193 4.201 3.577 0 1.684-.883 3.647-2.647 5.892-3.195 4.07-4.791 8.665-4.791 13.783l.757 84.697-.49 29.46z"/></g><path fill="#FFF" d="M400 657.62c133.13 0 241.05-107.92 241.05-241.05 0-1.727-.032-3.442-.064-5.155-43.44 89.71-135.33 151.59-241.69 151.59-105.26 0-196.34-60.604-240.32-148.81-.007.797-.029 1.588-.029 2.384 0 133.12 107.92 241.04 241.05 241.04z" opacity=".2"/><g opacity=".65"><linearGradient id="c" x1="518.36" x2="507.82" y1="623.26" y2="412.58" gradientTransform="matrix(-1.2694 .5572 -.402 -.9157 1519.4 619.46)" gradientUnits="userSpaceOnUse"><stop offset="0" style="stop-color:#ccc"/><stop offset="1" style="stop-color:#fff"/></linearGradient><path fill="url(#c)" d="M626.56 427.6c11.734 3.735 15.002 5.199 26.139 9.687 4.621-29.296 3.443-59.135-4.258-88.041-17.3-8.081-22.009-10.327-40.94-15.187 17.47 38.63 17.86 64.24 19.06 93.54z"/><linearGradient id="d" x1="571.56" x2="560.07" y1="629.71" y2="400.05" gradientTransform="matrix(-1.2694 .5572 -.402 -.9157 1519.4 619.46)" gradientUnits="userSpaceOnUse"><stop offset="0" style="stop-color:#ccc"/><stop offset="1" style="stop-color:#fff"/></linearGradient><path fill="url(#d)" d="M650.62 448.58c-10.05-3.534-13.761-5.09-24.826-7.144.642 51.847-19.294 90.679-39.612 128.94 32.94-35.51 55.21-77.82 64.44-121.8z"/></g><defs><filter id="e" width="355.24" height="261.65" x="222.38" y="149.77" filterUnits="userSpaceOnUse"><feColorMatrix values="1 0 0 0 0 0 1 0 0 0 0 0 1 0 0 0 0 0 1 0"/></filter></defs><mask id="g" width="355.242" height="261.651" x="222.378" y="149.772" maskUnits="userSpaceOnUse"><g filter="url(#e)"><linearGradient id="f" x1="400" x2="400" y1="411.42" y2="149.77" gradientUnits="userSpaceOnUse"><stop offset="0" style="stop-color:#1a1a1a"/><stop offset="1" style="stop-color:#ccc"/></linearGradient><ellipse cx="400" cy="280.6" fill="url(#f)" rx="177.62" ry="130.83"/></g></mask><ellipse cx="400" cy="280.6" fill="#FFF" mask="url(#g)" rx="177.62" ry="130.83"/></g></switch></svg>